# xmcd
#
# Track frame offsets:
#	150
#	21003
#	47691
#	63868
#	82780
#	98582
#	116734
#	141511
#	165420
#	182677
#	199684
#	235885
#	257051
#	277319
#	295914
#	311953
#	326795
#	342682
#
# Disc length: 4790 seconds
#
# Revision: 2
# Processed by: cddbd v1.5.1PL0 Copyright (c) Steve Scherf et al.
# Submitted via: audiograbber 1.83.01
#
DISCID=0f12b412
DTITLE=Diverse - Portugues
DYEAR=1900
DGENRE=
TTITLE0=Joao Pedro Pais - Resto de tudo
TTITLE1=So quero
TTITLE2=Carlos Paiao - Po e aroz
TTITLE3=O Teu primeiro amor
TTITLE4=Quando Falam de ti
TTITLE5=Tiziano Ferro - Perdono
TTITLE6=Falame de amor
TTITLE7=Sometimes (Everybody hurts)
TTITLE8=Chris de Burgh - So Beautiful
TTITLE9=Kelly Family - An Angel
TTITLE10=Jim Diamond - Should known better
TTITLE11=Celine Dion - My heart will go on
TTITLE12=Andrea Bocelli - Time To say goodbye
TTITLE13=Eu fui ver
TTITLE14=Á sombra do marinheiro
TTITLE15=Maria Paia
TTITLE16=Bryan Adams - Straight from my heart
TTITLE17=LA Samba
EXTD=
EXTT0=
EXTT1=
EXTT2=
EXTT3=
EXTT4=
EXTT5=
EXTT6=
EXTT7=
EXTT8=
EXTT9=
EXTT10=
EXTT11=
EXTT12=
EXTT13=
EXTT14=
EXTT15=
EXTT16=
EXTT17=
PLAYORDER=
